# xmcd CD database file
#
# Track frame offsets:
#	150
#	23477
#	37552
#	50135
#	71055
#	91262
#	108997
#	128670
#	142660
#	162752
#	184215
#	200350
#	214395
#	236587
#	250245
#	269095
#	286145
#	306152
#
# Disc length: 4279 seconds
#
# Revision: 0
# Processed by: cddbd v1.5.2PL0 Copyright (c) Steve Scherf et al.
# Submitted via: CDex 1.51
#
DISCID=fb10b512
DTITLE=Original Storyville Jazzband Wien - There'll be a hot time in Old Town tonight
DYEAR=1993
DGENRE=Jazz
TTITLE0=Panama
TTITLE1=Aunt Hagar's Blues
TTITLE2=There'll be a hot time in Old Town tonight
TTITLE3=Chloe
TTITLE4=My little Girl
TTITLE5=Jet black Blues
TTITLE6=Up above my head
TTITLE7=Blues for George Adams
TTITLE8=Sunset Cafe Stomp
TTITLE9=New Orleans Function
TTITLE10=What you want me to do
TTITLE11=Lord, Lord, Lord
TTITLE12=Come on Coot
TTITLE13=2:19 Blues
TTITLE14=Of all the wrongs you done to me
TTITLE15=Precious Lord, take my hand
TTITLE16=Ting-a-ling
TTITLE17=Amen
EXTD=YEAR: 1993
EXTT0=
EXTT1=
EXTT2=
EXTT3=
EXTT4=
EXTT5=
EXTT6=
EXTT7=
EXTT8=
EXTT9=
EXTT10=
EXTT11=
EXTT12=
EXTT13=
EXTT14=
EXTT15=
EXTT16=
EXTT17=
PLAYORDER=
